<svg width="43" height="44" viewBox="0 0 43 44" fill="none" xmlns="http://www.w3.org/2000/svg">
<path d="M3 6H40V41H3V6Z" fill="white"/>
<path d="M3.53831 43.4439C2.59476 43.4439 1.76915 43.1181 1.06149 42.4664C0.353831 41.8148 0 41.0545 0 40.1856V6.51659C0 5.64771 0.353831 4.88744 1.06149 4.23578C1.76915 3.58412 2.59476 3.25829 3.53831 3.25829H7.37147V0H11.2046V3.25829H31.2551V0H35.0882V3.25829H38.9214C39.8649 3.25829 40.6905 3.58412 41.3982 4.23578C42.1059 4.88744 42.4597 5.64771 42.4597 6.51659V40.1856C42.4597 41.0545 42.1059 41.8148 41.3982 42.4664C40.6905 43.1181 39.8649 43.4439 38.9214 43.4439H3.53831ZM3.53831 40.1856H38.9214V16.8345H3.53831V40.1856ZM3.53831 13.5762H38.9214V6.51659H3.53831V13.5762Z" fill="#B28B54"/>
</svg>
