<?xml version="1.0" encoding="UTF-8"?>
<svg id="_レイヤー_1" data-name="レイヤー_1" xmlns="http://www.w3.org/2000/svg" version="1.1" viewBox="0 0 144.18 117.17">
  <!-- Generator: Adobe Illustrator 30.3.0, SVG Export Plug-In . SVG Version: 2.1.1 Build 104)  -->
  <defs>
    <style>
      .st0 {
        fill: #0c545e;
      }

      .st1 {
        fill: #b28b54;
      }
    </style>
  </defs>
  <path class="st0" d="M41.09,84.75L4.45,60.91c-.19-.12-.31-.32-.33-.54l-1.94-18.83c-.04-.41.26-.78.68-.81l14.1-1.08c.25-.02.48.09.64.28l29.42,37.45c-.51.54-4.91,5.26-5.92,7.38Z"/>
  <path class="st0" d="M57.5,70.66l-11.25-39.03c-.07-.24-.25-.43-.49-.5l-23.34-7.18c-.43-.13-.88.15-.95.6l-1.89,13.41c-.03.2.03.4.15.56l29.41,37.02s4.55-3.59,8.35-4.89h0Z"/>
  <path class="st1" d="M64.35,72.92"/>
  <path class="st0" d="M34.03,22.68l5.23-12.54c.11-.27.43-.38.69-.24l12.82,7.02c.26.14.34.47.17.71-1.21,1.74-5.53,8.08-6.2,10.89-.08.33-.47.48-.76.28-1.94-1.35-7.64-5.11-11.53-5.44-.33-.03-.55-.37-.42-.68h0Z"/>
  <path class="st0" d="M104.64,22.57l-5.06-12.32c-.17-.41-.65-.58-1.04-.37l-12.4,6.8c-.36.2-.5.66-.28,1.02,1.46,2.47,5.36,7.78,6.12,10.43.13.46.66.67,1.07.43,2.13-1.24,7.35-4.14,11.07-4.98.45-.1.71-.57.53-1h0Z"/>
  <path class="st1" d="M140.78,24.21c-.02-.15-.24-.14-.24.01-3.1,49.69-44.39,89.04-94.86,89.04-1.26,0-2.51-.03-3.76-.08,6.12,1.49,12.5,2.28,19.07,2.28,44.46,0,80.5-36.04,80.5-80.5,0-3.64-.24-7.23-.71-10.74h0Z"/>
  <path class="st1" d="M72,104.13l24.06-17.23s.06-.09.02-.14l-1.3-1.8s-.09-.05-.14-.02l-19.38,14.07c-.09.07-.2-.05-.14-.14l13.83-19.54s.02-.11-.02-.14l-1.81-1.28s-.11-.02-.14.02l-13.83,19.54c-.07.09-.21.02-.18-.08l6.82-22.95c.02-.05-.01-.11-.07-.12l-2.13-.63c-.05-.02-.11.01-.12.07l-6.55,22.04c-.03.11-.19.09-.19-.03v-22.98c0-.06-.04-.1-.1-.1h-2.22c-.06,0-.1.04-.1.1v22.35c0,.11-.15.14-.19.04l-8.03-20.98c-.02-.05-.08-.08-.13-.06l-2.07.79c-.05.02-.08.08-.06.13l8.52,22.28c.04.11-.1.19-.17.1l-14.6-19.15s-.1-.05-.14-.02l-1.77,1.35s-.05.1-.02.14l14.6,19.14c.07.09-.04.21-.13.14l-20.03-13.64s-.11-.02-.14.03l-1.25,1.83s-.02.11.03.14l24.62,16.68s.06.02.08.01l1.22-.36s.02,0,.03,0l2.07.02s.02,0,.03,0l1.12.39s.06,0,.09-.01h0Z"/>
  <path class="st0" d="M90.36,29.6c-1.3-2.34-15.26-27.35-20.29-27.35-.07,0-.08,0-.15,0-5.21.66-19.98,24.47-21.43,26.83-.08.12-.09.26-.05.4l11.83,40.24c9.3-3.32,19.44-.31,19.44-.31l10.69-39.44c.03-.13.02-.26-.04-.37h0ZM79.01,32.67c1-.58,2.28-.24,2.86.77s.24,2.29-.77,2.87c-.05.03-.11.06-.16.08l-8.53,2.9c-.16.08-.35.02-.44-.14-.09-.15-.04-.35.1-.45l6.74-5.91c.06-.04.13-.09.19-.13ZM73.69,28.88c.58-1,1.86-1.35,2.86-.77,1,.58,1.35,1.86.77,2.86-.03.05-.06.1-.1.15l-5.93,6.78c-.1.15-.3.19-.45.1-.15-.09-.21-.28-.14-.44l2.88-8.48c.03-.07.07-.14.11-.21h0ZM71.17,40.71c0,1.04-.85,1.89-1.89,1.89s-1.89-.84-1.89-1.89.85-1.89,1.89-1.89,1.89.84,1.89,1.89ZM69.28,26.17c1.16,0,2.1.94,2.1,2.1,0,.06,0,.12,0,.18l-1.75,8.84c-.01.18-.16.31-.34.31s-.32-.14-.34-.31l-1.75-8.79c0-.08-.01-.15-.01-.23,0-1.16.94-2.1,2.1-2.1h0ZM62.01,28.11c1-.58,2.28-.24,2.86.77.03.05.06.11.08.16l2.9,8.53c.08.16.02.35-.14.44s-.35.04-.45-.1l-5.91-6.74c-.04-.06-.09-.13-.13-.19-.58-1-.24-2.28.77-2.86ZM56.69,33.44c.58-1,1.86-1.35,2.86-.77.05.03.1.06.15.1l6.78,5.94c.15.1.19.29.1.45-.09.16-.28.21-.44.14l-8.49-2.88c-.07-.03-.14-.07-.21-.1-1-.58-1.35-1.86-.77-2.87ZM54.74,40.71c0-1.16.94-2.1,2.1-2.1.06,0,.12,0,.18,0l8.84,1.75c.18.01.32.16.32.34s-.14.33-.31.34l-8.79,1.74c-.08,0-.15.01-.23.01-1.16,0-2.1-.94-2.1-2.1h0ZM59.74,48.63c-.06.04-.13.08-.19.13-1,.58-2.28.23-2.86-.77-.58-1-.24-2.29.77-2.87.05-.03.11-.06.16-.08l8.53-2.9c.16-.08.35-.02.44.14.09.15.04.35-.1.45l-6.74,5.91h0ZM64.87,52.54c-.58,1-1.86,1.35-2.86.77-1-.58-1.35-1.86-.77-2.86.03-.05.06-.1.1-.15l5.93-6.78c.1-.15.29-.19.45-.1.15.09.21.28.14.44l-2.88,8.48c-.03.07-.07.14-.11.21h0ZM69.28,55.26c-1.16,0-2.1-.94-2.1-2.1,0-.06,0-.12,0-.18l1.75-8.84c.01-.18.16-.31.34-.31s.32.14.34.31l1.75,8.79c0,.08.01.15.01.23,0,1.16-.94,2.1-2.1,2.1h0ZM76.56,53.31c-1,.58-2.29.24-2.86-.77-.03-.05-.06-.1-.08-.16l-2.9-8.53c-.07-.16-.02-.35.14-.44.15-.09.35-.04.45.1l5.91,6.74c.04.06.09.13.13.19.58,1,.24,2.28-.77,2.86h0ZM81.88,47.98c-.58,1-1.86,1.35-2.86.77-.05-.03-.1-.06-.15-.1l-6.78-5.94c-.14-.1-.19-.3-.1-.45.09-.15.28-.21.44-.14l8.48,2.88c.07.03.14.07.21.1,1,.58,1.35,1.86.77,2.87h0ZM81.73,42.81c-.06,0-.12,0-.18,0l-8.84-1.75c-.18-.01-.31-.16-.31-.34s.14-.32.31-.34l8.79-1.75c.08,0,.15-.01.23-.01,1.16,0,2.1.94,2.1,2.1s-.94,2.1-2.1,2.1h0Z"/>
  <path class="st1" d="M132.61,40.56l-10.3-.71c-.24-.02-.48.09-.63.28l-29.01,36.51c4.85,4.15,6.68,7.85,6.68,7.85l23.31-18.53c.1-.08.17-.17.22-.29l10.36-24.08c.2-.47-.12-.99-.63-1.03ZM107.13,70.53c-1.16,0-2.1-.94-2.1-2.1,0-.06,0-.12,0-.18l1.75-8.84c.01-.18.16-.31.34-.31s.32.14.34.31l1.75,8.79c0,.08.01.15.01.23,0,1.16-.94,2.1-2.1,2.1h0ZM114.4,68.58c-1,.58-2.29.24-2.86-.77-.03-.05-.06-.1-.08-.16l-2.9-8.53c-.07-.16-.02-.35.14-.44.15-.09.35-.04.45.1l5.91,6.74c.04.06.09.13.13.19.58,1,.24,2.29-.77,2.86h0ZM119.73,63.25c-.58,1-1.86,1.35-2.86.77-.05-.03-.1-.06-.15-.1l-6.78-5.94c-.14-.1-.19-.3-.1-.45.09-.15.28-.21.44-.14l8.48,2.88c.07.03.14.07.21.1,1,.58,1.35,1.86.77,2.86h0ZM119.58,58.08c-.06,0-.12,0-.18,0l-8.84-1.75c-.18-.01-.31-.16-.31-.34s.14-.32.31-.34l8.79-1.75c.08,0,.15-.01.23-.01,1.16,0,2.1.94,2.1,2.1,0,1.16-.94,2.1-2.1,2.1Z"/>
  <path class="st1" d="M119.93,38.08l-3.24-13.24c-.1-.42-.54-.66-.94-.53l-22.47,7.33c-.23.08-.41.26-.48.49-1.12,3.87-10.57,36.6-11.39,37.97,0,0,4.22,1.17,9.22,4.85l29.17-36.24c.14-.18.2-.42.14-.64ZM93.38,49.43c.48-1.05,1.73-1.51,2.78-1.03.06.03.11.05.16.08l7.3,5.28c.15.08.22.28.14.44-.07.16-.26.24-.42.18l-8.72-2.08c-.07-.02-.14-.05-.21-.08-1.05-.48-1.51-1.73-1.03-2.78h0ZM92.12,56.85c-.11-1.15.74-2.17,1.89-2.28.06,0,.12,0,.18,0l8.96.92c.18,0,.33.13.35.31.02.18-.11.34-.28.37l-8.59,2.56c-.07.02-.15.03-.23.03-1.15.11-2.17-.74-2.28-1.89h0ZM104,57.76l-6.16,6.51c-.06.05-.12.1-.18.14-.94.67-2.25.45-2.92-.5-.67-.94-.45-2.25.5-2.92.05-.03.1-.07.15-.1l8.22-3.69c.15-.09.35-.05.45.09.1.15.08.34-.06.46h0ZM104.8,52.95c-.15.1-.34.08-.46-.06l-6.51-6.16c-.05-.06-.1-.12-.14-.18-.67-.94-.45-2.25.5-2.92.94-.67,2.25-.45,2.92.5.04.05.07.1.1.15l3.69,8.22c.09.15.05.35-.09.45ZM106.62,52.05c0,.18-.13.33-.31.35-.18.02-.34-.1-.37-.28l-2.56-8.59c-.02-.08-.03-.15-.03-.23-.11-1.15.74-2.17,1.89-2.28,1.15-.11,2.18.74,2.28,1.89,0,.06.01.12,0,.18l-.92,8.96h0ZM113.7,45.05c-.03.06-.05.11-.08.16l-5.28,7.3c-.09.15-.28.22-.44.14-.16-.07-.24-.26-.18-.42l2.08-8.72c.03-.07.05-.14.09-.22.48-1.05,1.73-1.51,2.78-1.03,1.05.48,1.51,1.73,1.03,2.78h0Z"/>
  <path class="st1" d="M15.62,76.09s.01,0,0,0c-.46,13.5,14.14,30.18,29.04,32.13,0,0,0,0,0,0-10.99-2.61-26.22-19.89-29.03-32.12Z"/>
  <path class="st1" d="M24.5,80.01s-.01,0,0,0c2.3,13.45,13.45,23.09,26.39,24.09,0,0,0,0,0,0-11.58-3.96-21.27-12.6-26.38-24.08Z"/>
</svg>