<svg width="55" height="50" viewBox="0 0 55 50" fill="none" xmlns="http://www.w3.org/2000/svg">
<path d="M17.835 1.78613L2.33496 6.78613L2.83496 46.7861L18.335 40.7861L37.335 47.2861L52.835 42.2861V2.28613L37.335 7.78613L17.835 1.78613Z" fill="white"/>
<path d="M36.9162 49.222L17.6556 42.4644L3.7897 48.1696C2.9307 48.5922 2.08434 48.5688 1.2506 48.0992C0.416867 47.6296 0 46.9253 0 45.9861V6.68309C0 6.07265 0.189485 5.53264 0.568456 5.06307C0.947426 4.5935 1.44009 4.24133 2.04644 4.00654L17.6556 0L36.9162 5.96631L50.782 0.484762C51.641 0.109106 52.4874 0.144324 53.3211 0.590416C54.1549 1.03651 54.5717 1.72912 54.5717 2.66826V42.4644C54.5717 42.9809 54.3823 43.427 54.0033 43.8026C53.6243 44.1783 53.1569 44.46 52.6011 44.6479L36.9162 49.222ZM35.3111 45.7417V7.95508L19.2606 3.09502V40.2726L35.3111 45.7417ZM38.5212 45.7417L51.3616 41.5777V3.65908L38.5212 8.31611V45.7417ZM3.2101 44.6479L16.0505 39.7754V3.09502L3.2101 6.68309V44.6479Z" fill="#B28B54"/>
</svg>
