<svg width="59" height="59" viewBox="0 0 59 59" fill="none" xmlns="http://www.w3.org/2000/svg">
<path d="M14.7498 48.5111C13.9631 48.5111 13.2748 48.2161 12.6848 47.6261C12.0948 47.0361 11.7998 46.3477 11.7998 45.5611V15.0777C11.7998 14.2911 12.0948 13.6027 12.6848 13.0127C13.2748 12.4227 13.9631 12.1277 14.7498 12.1277H17.9456V9.17773H21.1415V12.1277H37.8581V9.17773H41.054V12.1277H44.2498C45.0365 12.1277 45.7248 12.4227 46.3148 13.0127C46.9048 13.6027 47.1998 14.2911 47.1998 15.0777V45.5611C47.1998 46.3477 46.9048 47.0361 46.3148 47.6261C45.7248 48.2161 45.0365 48.5111 44.2498 48.5111H14.7498ZM14.7498 45.5611H44.2498V24.4194H14.7498V45.5611ZM14.7498 21.4694H44.2498V15.0777H14.7498V21.4694Z" fill="#B28B54"/>
</svg>
