<svg width="36" height="40" viewBox="0 0 36 40" fill="none" xmlns="http://www.w3.org/2000/svg">
<ellipse cx="17.8984" cy="20" rx="14.5" ry="15" fill="#B28B54"/>
<path d="M5.94958 39.6L8.57143 33.7095C8 33.3135 7.48739 32.9257 7.03361 32.5462C6.57983 32.1667 6.11765 31.746 5.64706 31.284C5.37815 31.416 5.08403 31.515 4.76471 31.581C4.44538 31.647 4.15126 31.68 3.88235 31.68C2.80672 31.68 1.89076 31.3088 1.13445 30.5663C0.378151 29.8238 0 28.9245 0 27.8685C0 27.2085 0.159664 26.5898 0.478992 26.0123C0.798319 25.4348 1.19328 25.014 1.66387 24.75C1.42857 23.925 1.2437 23.1 1.10924 22.275C0.97479 21.45 0.907563 20.6085 0.907563 19.7505C0.907563 18.8595 0.966387 18.0098 1.08403 17.2013C1.20168 16.3928 1.39496 15.576 1.66387 14.751C1.19328 14.421 0.798319 13.9838 0.478992 13.4392C0.159664 12.8947 0 12.2925 0 11.6325C0 10.5765 0.378151 9.67725 1.13445 8.93475C1.89076 8.19225 2.80672 7.821 3.88235 7.821C4.15126 7.821 4.43697 7.854 4.7395 7.92C5.04202 7.986 5.32773 8.085 5.59664 8.217C6.77311 7.029 8.05882 6.039 9.45378 5.247C10.8487 4.455 12.4034 3.8445 14.1176 3.4155C14.2857 2.3595 14.7311 1.52625 15.4538 0.91575C16.1765 0.30525 17.0252 0 18 0C18.9748 0 19.8319 0.3135 20.5714 0.9405C21.3109 1.5675 21.7479 2.3925 21.8824 3.4155C23.5966 3.8445 25.2101 4.41375 26.7227 5.12325C28.2353 5.83275 29.563 6.8145 30.7059 8.0685C30.9412 8.0025 31.1765 7.94475 31.4118 7.89525C31.6471 7.84575 31.8824 7.821 32.1176 7.821C33.1933 7.821 34.1092 8.19225 34.8655 8.93475C35.6218 9.67725 36 10.5765 36 11.6325C36 12.3585 35.8403 12.9855 35.521 13.5135C35.2017 14.0415 34.8067 14.454 34.3361 14.751C34.605 15.609 34.7983 16.434 34.916 17.226C35.0336 18.018 35.0924 18.8595 35.0924 19.7505C35.0924 20.6085 35.0336 21.4418 34.916 22.2503C34.7983 23.0588 34.605 23.8755 34.3361 24.7005C34.9076 25.0635 35.3277 25.542 35.5966 26.136C35.8655 26.73 36 27.3075 36 27.8685C36 28.9245 35.6218 29.8238 34.8655 30.5663C34.1092 31.3088 33.1933 31.68 32.1176 31.68C31.8487 31.68 31.5546 31.647 31.2353 31.581C30.916 31.515 30.6387 31.416 30.4034 31.284C29.9664 31.746 29.5126 32.175 29.042 32.571C28.5714 32.967 28.0672 33.3465 27.5294 33.7095L30.1008 39.6H27.2269L25.1092 35.046C24.5378 35.244 24 35.4255 23.4958 35.5905C22.9916 35.7555 22.4538 35.9205 21.8824 36.0855C21.7143 37.1745 21.2689 38.016 20.5462 38.61C19.8235 39.204 18.9748 39.501 18 39.501C17.0252 39.501 16.1765 39.204 15.4538 38.61C14.7311 38.016 14.2857 37.1745 14.1176 36.0855C13.5462 35.9205 13 35.7555 12.479 35.5905C11.958 35.4255 11.4622 35.2275 10.9916 34.9965L8.77311 39.6H5.94958ZM9.68067 31.185L13.2605 23.5125C12.7899 22.9845 12.437 22.4153 12.2017 21.8048C11.9664 21.1943 11.8487 20.526 11.8487 19.8C11.8487 18.15 12.479 16.731 13.7395 15.543C15 14.355 16.4706 13.761 18.1513 13.761C19.8319 13.761 21.2521 14.355 22.4118 15.543C23.5714 16.731 24.1513 18.15 24.1513 19.8C24.1513 20.526 24.042 21.1943 23.8235 21.8048C23.605 22.4153 23.2437 22.9845 22.7395 23.5125L26.3193 31.185C26.6891 30.921 27.0672 30.6323 27.4538 30.3188C27.8403 30.0053 28.2017 29.667 28.5378 29.304C28.4706 29.106 28.4034 28.8833 28.3361 28.6358C28.2689 28.3883 28.2353 28.1325 28.2353 27.8685C28.2353 26.9775 28.5378 26.169 29.1429 25.443C29.7479 24.717 30.5882 24.255 31.6639 24.057C31.8992 23.397 32.0756 22.704 32.1933 21.978C32.3109 21.252 32.3697 20.5095 32.3697 19.7505C32.3697 18.9585 32.3109 18.2078 32.1933 17.4983C32.0756 16.7888 31.916 16.104 31.7143 15.444C30.7059 15.312 29.8739 14.883 29.2185 14.157C28.563 13.431 28.2353 12.5895 28.2353 11.6325C28.2353 11.3355 28.2605 11.0715 28.3109 10.8405C28.3613 10.6095 28.437 10.362 28.5378 10.098C27.4622 9.075 26.3361 8.2335 25.1597 7.5735C23.9832 6.9135 22.6555 6.3855 21.1765 5.9895C20.9076 6.4185 20.4958 6.798 19.9412 7.128C19.3866 7.458 18.7395 7.623 18 7.623C17.2605 7.623 16.6218 7.458 16.084 7.128C15.5462 6.798 15.1261 6.4185 14.8235 5.9895C13.3445 6.3855 11.9916 6.9135 10.7647 7.5735C9.53781 8.2335 8.43697 9.108 7.46218 10.197C7.59664 10.461 7.68067 10.7003 7.71429 10.9148C7.7479 11.1293 7.76471 11.3685 7.76471 11.6325C7.76471 12.6885 7.42017 13.5548 6.73109 14.2313C6.04202 14.9078 5.2437 15.312 4.33613 15.444C4.10084 16.104 3.92437 16.7888 3.80672 17.4983C3.68908 18.2078 3.63025 18.9585 3.63025 19.7505C3.63025 20.5095 3.68908 21.252 3.80672 21.978C3.92437 22.704 4.10084 23.397 4.33613 24.057C5.41176 24.255 6.2521 24.717 6.85714 25.443C7.46219 26.169 7.76471 26.9775 7.76471 27.8685C7.76471 28.1655 7.7395 28.4295 7.68908 28.6605C7.63866 28.8915 7.57983 29.0895 7.51261 29.2545C7.84874 29.6175 8.19328 29.9558 8.54622 30.2693C8.89916 30.5828 9.27731 30.888 9.68067 31.185ZM11.9496 32.5215C12.3529 32.6865 12.7983 32.8598 13.2857 33.0413C13.7731 33.2228 14.2857 33.3795 14.8235 33.5115C15.1933 33.0495 15.6303 32.6618 16.1345 32.3483C16.6387 32.0348 17.2605 31.878 18 31.878C18.7395 31.878 19.3866 32.0348 19.9412 32.3483C20.4958 32.6618 20.9076 33.0495 21.1765 33.5115C21.7479 33.3795 22.2605 33.231 22.7143 33.066C23.1681 32.901 23.5798 32.736 23.9496 32.571L20.6723 25.0965C20.2689 25.3605 19.8319 25.5503 19.3613 25.6658C18.8908 25.7813 18.4202 25.839 17.9496 25.839C17.479 25.839 17.0084 25.773 16.5378 25.641C16.0672 25.509 15.6303 25.311 15.2269 25.047L11.9496 32.5215ZM18 22.869C18.8739 22.869 19.6134 22.572 20.2185 21.978C20.8235 21.384 21.1261 20.658 21.1261 19.8C21.1261 18.942 20.8235 18.216 20.2185 17.622C19.6134 17.028 18.8739 16.731 18 16.731C17.1261 16.731 16.3866 17.028 15.7815 17.622C15.1765 18.216 14.874 18.942 14.874 19.8C14.874 20.658 15.1765 21.384 15.7815 21.978C16.3866 22.572 17.1261 22.869 18 22.869Z" fill="#7E623A"/>
</svg>
