<svg width="39" height="38" viewBox="0 0 39 38" fill="none" xmlns="http://www.w3.org/2000/svg">
<path d="M37.0498 2.6002L27.2998 6.5002L12.3498 1.9502L1.2998 4.5502L1.9498 35.1002L12.3498 31.2002L26.6498 36.4002L37.6998 32.5002L37.0498 2.6002Z" fill="#B28B54"/>
<path d="M26.3824 37.7002L12.6176 32.5244L2.70833 36.8942C2.09444 37.2179 1.48958 37.1999 0.89375 36.8403C0.297917 36.4806 0 35.9411 0 35.2218V5.11894C0 4.65139 0.135417 4.23779 0.40625 3.87814C0.677083 3.51849 1.02917 3.24875 1.4625 3.06892L12.6176 0.000244141L26.3824 4.56994L36.2917 0.371532C36.9056 0.0838103 37.5104 0.110784 38.1063 0.452454C38.7021 0.794123 39 1.32461 39 2.04391V32.5244C39 32.92 38.8646 33.2617 38.5938 33.5494C38.3229 33.8372 37.9889 34.053 37.5917 34.1968L26.3824 37.7002ZM25.2353 35.0346V6.09317L13.7647 2.37077V30.8457L25.2353 35.0346ZM27.5294 35.0346L36.7059 31.8453V2.80279L27.5294 6.3697V35.0346ZM2.29412 34.1968L11.4706 30.4649V2.37077L2.29412 5.11894V34.1968Z" fill="#7E623A"/>
</svg>
