<svg width="36" height="40" viewBox="0 0 36 40" fill="none" xmlns="http://www.w3.org/2000/svg">
<rect x="2.2002" y="4.82227" width="31" height="33" fill="#B28B54"/>
<path d="M2.95 39.3333C2.16333 39.3333 1.475 39.0383 0.885 38.4483C0.295 37.8583 0 37.17 0 36.3833V5.9C0 5.11333 0.295 4.425 0.885 3.835C1.475 3.245 2.16333 2.95 2.95 2.95H6.14583V0H9.34167V2.95H26.0583V0H29.2542V2.95H32.45C33.2367 2.95 33.925 3.245 34.515 3.835C35.105 4.425 35.4 5.11333 35.4 5.9V36.3833C35.4 37.17 35.105 37.8583 34.515 38.4483C33.925 39.0383 33.2367 39.3333 32.45 39.3333H2.95ZM2.95 36.3833H32.45V15.2417H2.95V36.3833ZM2.95 12.2917H32.45V5.9H2.95V12.2917Z" fill="#7E623A"/>
</svg>
