<svg width="39" height="38" viewBox="0 0 39 38" fill="none" xmlns="http://www.w3.org/2000/svg">
<path d="M26.3824 37.7L12.6176 32.5242L2.70833 36.894C2.09444 37.2176 1.48958 37.1997 0.89375 36.84C0.297917 36.4804 0 35.9409 0 35.2216V5.1187C0 4.65115 0.135417 4.23755 0.40625 3.8779C0.677083 3.51824 1.02917 3.2485 1.4625 3.06868L12.6176 0L26.3824 4.5697L36.2917 0.371288C36.9056 0.0835662 37.5104 0.11054 38.1063 0.45221C38.7021 0.793879 39 1.32437 39 2.04367V32.5242C39 32.9198 38.8646 33.2615 38.5938 33.5492C38.3229 33.8369 37.9889 34.0527 37.5917 34.1966L26.3824 37.7ZM25.2353 35.0343V6.09293L13.7647 2.37053V30.8455L25.2353 35.0343ZM27.5294 35.0343L36.7059 31.8451V2.80255L27.5294 6.36945V35.0343ZM2.29412 34.1966L11.4706 30.4646V2.37053L2.29412 5.1187V34.1966Z" fill="#B28B54"/>
</svg>
