<svg width="54" height="54" viewBox="0 0 54 54" fill="none" xmlns="http://www.w3.org/2000/svg">
<path d="M15.5511 45.6L18.173 39.7095C17.6016 39.3135 17.089 38.9258 16.6352 38.5463C16.1814 38.1668 15.7192 37.746 15.2486 37.284C14.9797 37.416 14.6856 37.515 14.3663 37.581C14.0469 37.647 13.7528 37.68 13.4839 37.68C12.4083 37.68 11.4923 37.3088 10.736 36.5663C9.97971 35.8238 9.60156 34.9245 9.60156 33.8685C9.60156 33.2085 9.76123 32.5898 10.0806 32.0123C10.3999 31.4348 10.7948 31.014 11.2654 30.75C11.0301 29.925 10.8453 29.1 10.7108 28.275C10.5764 27.45 10.5091 26.6085 10.5091 25.7505C10.5091 24.8595 10.5679 24.0098 10.6856 23.2013C10.8032 22.3928 10.9965 21.576 11.2654 20.751C10.7948 20.421 10.3999 19.9838 10.0806 19.4393C9.76123 18.8948 9.60156 18.2925 9.60156 17.6325C9.60156 16.5765 9.97971 15.6773 10.736 14.9348C11.4923 14.1923 12.4083 13.821 13.4839 13.821C13.7528 13.821 14.0385 13.854 14.3411 13.92C14.6436 13.986 14.9293 14.085 15.1982 14.217C16.3747 13.029 17.6604 12.039 19.0553 11.247C20.4503 10.455 22.0049 9.8445 23.7192 9.4155C23.8873 8.3595 24.3327 7.52625 25.0553 6.91575C25.778 6.30525 26.6268 6 27.6016 6C28.5764 6 29.4335 6.3135 30.173 6.9405C30.9125 7.5675 31.3495 8.3925 31.4839 9.4155C33.1982 9.8445 34.8116 10.4138 36.3243 11.1233C37.8369 11.8328 39.1646 12.8145 40.3074 14.0685C40.5427 14.0025 40.778 13.9448 41.0133 13.8953C41.2486 13.8458 41.4839 13.821 41.7192 13.821C42.7948 13.821 43.7108 14.1923 44.4671 14.9348C45.2234 15.6773 45.6016 16.5765 45.6016 17.6325C45.6016 18.3585 45.4419 18.9855 45.1226 19.5135C44.8032 20.0415 44.4083 20.454 43.9377 20.751C44.2066 21.609 44.3999 22.434 44.5175 23.226C44.6352 24.018 44.694 24.8595 44.694 25.7505C44.694 26.6085 44.6352 27.4418 44.5175 28.2503C44.3999 29.0588 44.2066 29.8755 43.9377 30.7005C44.5091 31.0635 44.9293 31.542 45.1982 32.136C45.4671 32.73 45.6016 33.3075 45.6016 33.8685C45.6016 34.9245 45.2234 35.8238 44.4671 36.5663C43.7108 37.3088 42.7948 37.68 41.7192 37.68C41.4503 37.68 41.1562 37.647 40.8369 37.581C40.5175 37.515 40.2402 37.416 40.0049 37.284C39.568 37.746 39.1142 38.175 38.6436 38.571C38.173 38.967 37.6688 39.3465 37.131 39.7095L39.7024 45.6H36.8285L34.7108 41.046C34.1394 41.244 33.6016 41.4255 33.0974 41.5905C32.5932 41.7555 32.0553 41.9205 31.4839 42.0855C31.3158 43.1745 30.8705 44.016 30.1478 44.61C29.4251 45.204 28.5764 45.501 27.6016 45.501C26.6268 45.501 25.778 45.204 25.0553 44.61C24.3327 44.016 23.8873 43.1745 23.7192 42.0855C23.1478 41.9205 22.6016 41.7555 22.0806 41.5905C21.5595 41.4255 21.0637 41.2275 20.5932 40.9965L18.3747 45.6H15.5511ZM19.2822 37.185L22.8621 29.5125C22.3915 28.9845 22.0385 28.4153 21.8032 27.8048C21.5679 27.1943 21.4503 26.526 21.4503 25.8C21.4503 24.15 22.0806 22.731 23.3411 21.543C24.6016 20.355 26.0722 19.761 27.7528 19.761C29.4335 19.761 30.8537 20.355 32.0133 21.543C33.173 22.731 33.7528 24.15 33.7528 25.8C33.7528 26.526 33.6436 27.1943 33.4251 27.8048C33.2066 28.4153 32.8453 28.9845 32.3411 29.5125L35.9209 37.185C36.2906 36.921 36.6688 36.6323 37.0553 36.3188C37.4419 36.0053 37.8032 35.667 38.1394 35.304C38.0722 35.106 38.0049 34.8833 37.9377 34.6358C37.8705 34.3883 37.8369 34.1325 37.8369 33.8685C37.8369 32.9775 38.1394 32.169 38.7444 31.443C39.3495 30.717 40.1898 30.255 41.2654 30.057C41.5007 29.397 41.6772 28.704 41.7948 27.978C41.9125 27.252 41.9713 26.5095 41.9713 25.7505C41.9713 24.9585 41.9125 24.2078 41.7948 23.4983C41.6772 22.7888 41.5175 22.104 41.3158 21.444C40.3074 21.312 39.4755 20.883 38.82 20.157C38.1646 19.431 37.8369 18.5895 37.8369 17.6325C37.8369 17.3355 37.8621 17.0715 37.9125 16.8405C37.9629 16.6095 38.0385 16.362 38.1394 16.098C37.0637 15.075 35.9377 14.2335 34.7612 13.5735C33.5848 12.9135 32.257 12.3855 30.778 11.9895C30.5091 12.4185 30.0974 12.798 29.5427 13.128C28.9881 13.458 28.3411 13.623 27.6016 13.623C26.8621 13.623 26.2234 13.458 25.6856 13.128C25.1478 12.798 24.7276 12.4185 24.4251 11.9895C22.9461 12.3855 21.5932 12.9135 20.3663 13.5735C19.1394 14.2335 18.0385 15.108 17.0637 16.197C17.1982 16.461 17.2822 16.7003 17.3158 16.9148C17.3495 17.1293 17.3663 17.3685 17.3663 17.6325C17.3663 18.6885 17.0217 19.5548 16.3327 20.2313C15.6436 20.9078 14.8453 21.312 13.9377 21.444C13.7024 22.104 13.5259 22.7888 13.4083 23.4983C13.2906 24.2078 13.2318 24.9585 13.2318 25.7505C13.2318 26.5095 13.2906 27.252 13.4083 27.978C13.5259 28.704 13.7024 29.397 13.9377 30.057C15.0133 30.255 15.8537 30.717 16.4587 31.443C17.0637 32.169 17.3663 32.9775 17.3663 33.8685C17.3663 34.1655 17.3411 34.4295 17.2906 34.6605C17.2402 34.8915 17.1814 35.0895 17.1142 35.2545C17.4503 35.6175 17.7948 35.9558 18.1478 36.2693C18.5007 36.5828 18.8789 36.888 19.2822 37.185ZM21.5511 38.5215C21.9545 38.6865 22.3999 38.8598 22.8873 39.0413C23.3747 39.2228 23.8873 39.3795 24.4251 39.5115C24.7948 39.0495 25.2318 38.6618 25.736 38.3483C26.2402 38.0348 26.8621 37.878 27.6016 37.878C28.3411 37.878 28.9881 38.0348 29.5427 38.3483C30.0974 38.6618 30.5091 39.0495 30.778 39.5115C31.3495 39.3795 31.8621 39.231 32.3158 39.066C32.7696 38.901 33.1814 38.736 33.5511 38.571L30.2738 31.0965C29.8705 31.3605 29.4335 31.5503 28.9629 31.6658C28.4923 31.7813 28.0217 31.839 27.5511 31.839C27.0806 31.839 26.61 31.773 26.1394 31.641C25.6688 31.509 25.2318 31.311 24.8285 31.047L21.5511 38.5215ZM27.6016 28.869C28.4755 28.869 29.215 28.572 29.8201 27.978C30.4251 27.384 30.7276 26.658 30.7276 25.8C30.7276 24.942 30.4251 24.216 29.8201 23.622C29.215 23.028 28.4755 22.731 27.6016 22.731C26.7276 22.731 25.9881 23.028 25.3831 23.622C24.778 24.216 24.4755 24.942 24.4755 25.8C24.4755 26.658 24.778 27.384 25.3831 27.978C25.9881 28.572 26.7276 28.869 27.6016 28.869Z" fill="#B28B54"/>
</svg>
