<svg width="50" height="51" viewBox="0 0 50 51" fill="none" xmlns="http://www.w3.org/2000/svg">
<path d="M46.4873 24.668C46.4873 35.4375 37.0853 44.168 25.4873 44.168C13.8893 44.168 4.4873 35.4375 4.4873 24.668C4.4873 13.8984 13.8893 5.16797 25.4873 5.16797C37.0853 5.16797 46.4873 13.8984 46.4873 24.668Z" fill="white"/>
<path d="M8.19979 50.7187L11.8133 43.1743C11.0257 42.6671 10.3192 42.1705 9.69382 41.6845C9.06841 41.1984 8.43142 40.6595 7.78285 40.0678C7.41224 40.2369 7.00688 40.3637 6.56678 40.4482C6.12668 40.5327 5.72132 40.575 5.35071 40.575C3.86826 40.575 2.60587 40.0995 1.56352 39.1485C0.521173 38.1975 0 37.0458 0 35.6933C0 34.848 0.220051 34.0555 0.660153 33.3159C1.10025 32.5762 1.64459 32.0373 2.29316 31.6992C1.96888 30.6426 1.71408 29.5859 1.52877 28.5293C1.34347 27.4726 1.25082 26.3949 1.25082 25.296C1.25082 24.1548 1.33189 23.0665 1.49403 22.0309C1.65617 20.9954 1.92255 19.9494 2.29316 18.8927C1.64459 18.4701 1.10025 17.9101 0.660153 17.2127C0.220051 16.5153 0 15.7439 0 14.8986C0 13.5461 0.521173 12.3944 1.56352 11.4434C2.60587 10.4924 3.86826 10.0169 5.35071 10.0169C5.72132 10.0169 6.1151 10.0592 6.53204 10.1437C6.94898 10.2283 7.34275 10.3551 7.71336 10.5241C9.33479 9.00257 11.1068 7.73461 13.0293 6.72023C14.9519 5.70586 17.0945 4.92394 19.4571 4.37449C19.6888 3.02199 20.3026 1.95478 21.2986 1.17287C22.2946 0.390957 23.4644 0 24.8078 0C26.1513 0 27.3326 0.401523 28.3518 1.20457C29.371 2.00762 29.9732 3.06426 30.1586 4.37449C32.5212 4.92394 34.7449 5.65303 36.8296 6.56174C38.9143 7.47045 40.7442 8.72785 42.3193 10.3339C42.6435 10.2494 42.9678 10.1754 43.2921 10.112C43.6164 10.0486 43.9407 10.0169 44.265 10.0169C45.7474 10.0169 47.0098 10.4924 48.0522 11.4434C49.0945 12.3944 49.6157 13.5461 49.6157 14.8986C49.6157 15.8285 49.3956 16.6315 48.9555 17.3078C48.5154 17.984 47.9711 18.5123 47.3225 18.8927C47.6931 19.9916 47.9595 21.0483 48.1217 22.0626C48.2838 23.077 48.3649 24.1548 48.3649 25.296C48.3649 26.3949 48.2838 27.4621 48.1217 28.4976C47.9595 29.5331 47.6931 30.5792 47.3225 31.6358C48.1101 32.1007 48.6892 32.7136 49.0598 33.4744C49.4304 34.2351 49.6157 34.9748 49.6157 35.6933C49.6157 37.0458 49.0945 38.1975 48.0522 39.1485C47.0098 40.0995 45.7474 40.575 44.265 40.575C43.8944 40.575 43.489 40.5327 43.0489 40.4482C42.6088 40.3637 42.2266 40.2369 41.9023 40.0678C41.3001 40.6595 40.6747 41.209 40.0261 41.7162C39.3775 42.2233 38.6826 42.7094 37.9414 43.1743L41.4854 50.7187H37.5245L34.6059 44.8861C33.8183 45.1397 33.0771 45.3721 32.3822 45.5835C31.6873 45.7948 30.9461 46.0061 30.1586 46.2174C29.9269 47.6122 29.3131 48.69 28.3171 49.4508C27.3211 50.2115 26.1513 50.5919 24.8078 50.5919C23.4644 50.5919 22.2946 50.2115 21.2986 49.4508C20.3026 48.69 19.6888 47.6122 19.4571 46.2174C18.6696 46.0061 17.9168 45.7948 17.1987 45.5835C16.4807 45.3721 15.7973 45.1185 15.1488 44.8227L12.0912 50.7187H8.19979ZM13.342 39.941L18.2758 30.1142C17.6272 29.438 17.1408 28.7089 16.8165 27.927C16.4922 27.1451 16.3301 26.2892 16.3301 25.3594C16.3301 23.2461 17.1987 21.4287 18.936 19.9071C20.6732 18.3855 22.7 17.6248 25.0163 17.6248C27.3326 17.6248 29.2899 18.3855 30.8882 19.9071C32.4865 21.4287 33.2856 23.2461 33.2856 25.3594C33.2856 26.2892 33.135 27.1451 32.8339 27.927C32.5328 28.7089 32.0348 29.438 31.3399 30.1142L36.2737 39.941C36.7832 39.6029 37.3044 39.2331 37.8372 38.8315C38.3699 38.43 38.8679 37.9968 39.3312 37.5319C39.2386 37.2783 39.1459 36.993 39.0532 36.676C38.9606 36.359 38.9143 36.0314 38.9143 35.6933C38.9143 34.5521 39.3312 33.5166 40.1651 32.5868C40.999 31.6569 42.1571 31.0652 43.6396 30.8116C43.9639 29.9663 44.2071 29.0787 44.3692 28.1489C44.5314 27.2191 44.6124 26.2681 44.6124 25.296C44.6124 24.2816 44.5314 23.32 44.3692 22.4113C44.2071 21.5026 43.987 20.6256 43.7091 19.7803C42.3193 19.6112 41.1727 19.0618 40.2693 18.1319C39.3659 17.2021 38.9143 16.1243 38.9143 14.8986C38.9143 14.5182 38.949 14.1801 39.0185 13.8843C39.088 13.5884 39.1922 13.2714 39.3312 12.9333C37.8488 11.623 36.2968 10.5453 34.6754 9.69996C33.054 8.85464 31.2241 8.1784 29.1857 7.67121C28.8151 8.22066 28.2476 8.70672 27.4832 9.12937C26.7188 9.55203 25.827 9.76336 24.8078 9.76336C23.7887 9.76336 22.9085 9.55203 22.1672 9.12937C21.426 8.70672 20.8469 8.22066 20.43 7.67121C18.3916 8.1784 16.527 8.85464 14.8361 9.69996C13.1451 10.5453 11.628 11.6653 10.2845 13.0601C10.4698 13.3982 10.5856 13.7046 10.6319 13.9794C10.6783 14.2541 10.7014 14.5605 10.7014 14.8986C10.7014 16.2511 10.2266 17.3606 9.27688 18.227C8.32719 19.0935 7.22694 19.6112 5.97612 19.7803C5.65183 20.6256 5.40862 21.5026 5.24648 22.4113C5.08433 23.32 5.00326 24.2816 5.00326 25.296C5.00326 26.2681 5.08433 27.2191 5.24648 28.1489C5.40862 29.0787 5.65183 29.9663 5.97612 30.8116C7.45857 31.0652 8.61673 31.6569 9.45061 32.5868C10.2845 33.5166 10.7014 34.5521 10.7014 35.6933C10.7014 36.0737 10.6667 36.4118 10.5972 36.7077C10.5277 37.0035 10.4466 37.2571 10.354 37.4685C10.8172 37.9334 11.2921 38.3666 11.7785 38.7681C12.2649 39.1697 12.7861 39.5606 13.342 39.941ZM16.4691 41.6528C17.025 41.8641 17.6388 42.086 18.3106 42.3184C18.9823 42.5509 19.6888 42.7517 20.43 42.9207C20.9396 42.329 21.5418 41.8324 22.2367 41.4309C22.9316 41.0293 23.7887 40.8286 24.8078 40.8286C25.827 40.8286 26.7188 41.0293 27.4832 41.4309C28.2476 41.8324 28.8151 42.329 29.1857 42.9207C29.9732 42.7517 30.6797 42.5615 31.3051 42.3501C31.9305 42.1388 32.498 41.9275 33.0076 41.7162L28.4908 32.143C27.9349 32.4811 27.3326 32.7241 26.6841 32.8721C26.0355 33.02 25.3869 33.094 24.7384 33.094C24.0898 33.094 23.4412 33.0094 22.7926 32.8404C22.1441 32.6713 21.5418 32.4177 20.9859 32.0796L16.4691 41.6528ZM24.8078 29.2901C26.0123 29.2901 27.0315 28.9097 27.8654 28.1489C28.6993 27.3881 29.1162 26.4583 29.1162 25.3594C29.1162 24.2605 28.6993 23.3306 27.8654 22.5698C27.0315 21.8091 26.0123 21.4287 24.8078 21.4287C23.6034 21.4287 22.5842 21.8091 21.7503 22.5698C20.9164 23.3306 20.4995 24.2605 20.4995 25.3594C20.4995 26.4583 20.9164 27.3881 21.7503 28.1489C22.5842 28.9097 23.6034 29.2901 24.8078 29.2901Z" fill="#B28B54"/>
</svg>
