<svg width="16" height="17" viewBox="0 0 16 17" fill="none" xmlns="http://www.w3.org/2000/svg">
<path d="M1.33333 16.9134C0.977778 16.9134 0.666667 16.7866 0.4 16.5329C0.133333 16.2792 0 15.9832 0 15.6449V2.53701C0 2.19874 0.133333 1.90276 0.4 1.64906C0.666667 1.39536 0.977778 1.26851 1.33333 1.26851H2.77778V0H4.22222V1.26851H11.7778V0H13.2222V1.26851H14.6667C15.0222 1.26851 15.3333 1.39536 15.6 1.64906C15.8667 1.90276 16 2.19874 16 2.53701V15.6449C16 15.9832 15.8667 16.2792 15.6 16.5329C15.3333 16.7866 15.0222 16.9134 14.6667 16.9134H1.33333ZM1.33333 15.6449H14.6667V6.55394H1.33333V15.6449ZM1.33333 5.28544H14.6667V2.53701H1.33333V5.28544Z" fill="white"/>
</svg>
